<svg aria-hidden="true" style="position: absolute; width: 0; height: 0; overflow: hidden;" version="1.1" xmlns="http://www.w3.org/2000/svg" xmlns:xlink="http://www.w3.org/1999/xlink">
<defs>
<symbol id="icon-apollo" viewBox="0 0 107 32">
<title>apollo</title>
<path d="M17.409 9.076h-3.211l-4.642 12.265h2.905l0.754-2.075h4.38l-0.797-2.294h-2.883l1.879-5.275 3.342 9.655h2.905zM66.217 21.33v-12.254h2.588v9.96h5.089v2.294zM81.103 21.33v-12.254h2.577v9.96h5.089v2.294zM51.921 11.271c2.13 0 3.877 1.769 3.877 3.943s-1.737 3.943-3.877 3.943c-2.13 0-3.866-1.769-3.866-3.943s1.737-3.943 3.866-3.943zM51.921 8.868c-3.44 0-6.225 2.84-6.225 6.345s2.785 6.345 6.225 6.345 6.225-2.84 6.225-6.345-2.785-6.345-6.225-6.345zM100.642 11.271c2.141 0 3.877 1.769 3.877 3.943s-1.737 3.943-3.877 3.943c-2.13 0-3.866-1.769-3.866-3.943-0.011-2.173 1.726-3.943 3.866-3.943zM100.642 8.868c-3.44 0-6.225 2.84-6.225 6.345s2.785 6.345 6.225 6.345 6.225-2.84 6.225-6.345-2.785-6.345-6.225-6.345zM35.167 9.076h-5.614v12.265h2.567v-4.216h3.047c2.141 0 3.877-1.846 3.877-4.019 0-2.195-1.737-4.030-3.877-4.030zM35.167 14.711h-3.047v-3.244h3.047c0.841 0 1.518 0.764 1.518 1.616 0 0.863-0.677 1.627-1.518 1.627z"></path>
<path d="M27.347 25.054c-0.218 0-0.415 0.109-0.535 0.284 0 0-0.579 0.677-0.896 0.994-1.322 1.343-2.851 2.392-4.565 3.134-1.769 0.765-3.648 1.147-5.592 1.147s-3.823-0.382-5.592-1.147c-1.704-0.743-3.244-1.802-4.565-3.145s-2.359-2.905-3.080-4.653c-0.754-1.802-1.125-3.713-1.125-5.69s0.382-3.888 1.125-5.69c0.721-1.737 1.758-3.309 3.080-4.653s2.851-2.403 4.565-3.134c1.769-0.764 3.648-1.147 5.592-1.147s3.823 0.382 5.592 1.147c1.245 0.535 2.403 1.245 3.44 2.108-0.055 0.164-0.087 0.349-0.087 0.535 0 0.907 0.721 1.649 1.616 1.649s1.616-0.743 1.616-1.649-0.721-1.649-1.616-1.649c-0.218 0-0.437 0.044-0.623 0.131-2.709-2.261-6.171-3.615-9.939-3.615-8.661 0.011-15.683 7.154-15.683 15.978s7.023 15.967 15.683 15.967c4.849 0 9.174-2.239 12.057-5.756 0.12-0.12 0.197-0.295 0.197-0.481-0.011-0.371-0.306-0.666-0.666-0.666z"></path>
</symbol>
<symbol id="icon-reactjs" viewBox="0 0 76 32">
<title>reactjs</title>
<path fill="#fff" style="fill: var(--color1, #fff)" d="M0 15.934c0 2.672 2.639 5.212 6.763 6.598-0.825 4.157-0.132 7.522 2.111 8.808 2.342 1.353 5.806 0.429 9.072-2.474 3.2 2.771 6.466 3.86 8.709 2.54 2.342-1.353 3.035-4.915 2.177-9.204 4.322-1.419 6.73-3.563 6.73-6.301 0-2.639-2.639-4.882-6.697-6.301 0.924-4.454 0.132-7.753-2.21-9.105-2.276-1.32-5.542-0.165-8.808 2.672-3.398-3.002-6.631-3.926-9.006-2.573-2.276 1.32-2.936 4.718-2.078 8.973-4.025 1.452-6.763 3.761-6.763 6.367z"></path>
<path fill="#39d8ff" style="fill: var(--color2, #39d8ff)" d="M28.008 11.052c-0.33-0.099-0.66-0.231-1.023-0.33 0.066-0.231 0.099-0.462 0.165-0.693 0.759-3.728 0.264-6.763-1.452-7.753-1.649-0.957-4.355 0.033-7.060 2.408-0.264 0.231-0.528 0.462-0.792 0.726-0.165-0.165-0.33-0.33-0.528-0.495-2.837-2.54-5.707-3.596-7.423-2.606-1.649 0.957-2.144 3.794-1.452 7.324 0.066 0.363 0.132 0.693 0.231 1.056-0.396 0.099-0.792 0.231-1.155 0.363-3.332 1.155-5.476 3.002-5.476 4.882 0 1.946 2.309 3.926 5.773 5.113 0.297 0.099 0.561 0.198 0.858 0.264-0.099 0.363-0.165 0.759-0.264 1.122-0.66 3.497-0.132 6.235 1.485 7.192 1.682 0.99 4.553-0.033 7.324-2.441 0.231-0.198 0.429-0.396 0.66-0.594 0.264 0.264 0.561 0.528 0.858 0.792 2.672 2.309 5.344 3.233 6.994 2.309 1.682-0.99 2.243-3.959 1.518-7.555-0.066-0.264-0.132-0.561-0.198-0.858l0.594-0.198c3.629-1.188 5.971-3.134 5.971-5.113 0-1.88-2.21-3.728-5.608-4.915z"></path>
<path fill="#fff" style="fill: var(--color1, #fff)" d="M27.216 19.827c-0.165 0.066-0.363 0.099-0.528 0.165-0.429-1.386-0.99-2.705-1.584-3.992 0.594-1.287 1.122-2.606 1.55-3.959 0.33 0.099 0.627 0.198 0.924 0.297 2.936 0.99 4.718 2.507 4.718 3.629-0.033 1.221-1.946 2.804-5.080 3.86zM25.93 22.4c0.297 1.386 0.363 2.771 0.165 4.157-0.198 1.023-0.561 1.682-1.023 1.946-0.99 0.561-3.134-0.165-5.41-2.144-0.264-0.231-0.528-0.462-0.792-0.726 0.957-1.056 1.847-2.177 2.639-3.365 1.452-0.132 2.87-0.33 4.289-0.66 0 0.297 0.066 0.528 0.132 0.792zM12.8 28.437c-0.957 0.33-1.748 0.363-2.21 0.099-0.99-0.561-1.419-2.804-0.858-5.773 0.066-0.363 0.132-0.693 0.231-1.056 1.419 0.297 2.837 0.495 4.256 0.627 0.825 1.188 1.748 2.309 2.705 3.365-0.198 0.198-0.396 0.363-0.594 0.561-1.023 0.891-2.243 1.649-3.53 2.177zM8.247 19.827c-1.353-0.429-2.573-1.089-3.695-1.946-0.792-0.66-1.188-1.353-1.188-1.88 0-1.155 1.715-2.606 4.586-3.629 0.363-0.132 0.726-0.231 1.089-0.33 0.429 1.353 0.924 2.705 1.55 3.992-0.594 1.32-1.122 2.672-1.55 4.058-0.297-0.099-0.561-0.198-0.792-0.264zM9.765 9.402c-0.594-3.035-0.198-5.311 0.792-5.905 1.056-0.627 3.398 0.264 5.872 2.441 0.165 0.132 0.33 0.297 0.462 0.429-0.957 1.056-1.88 2.177-2.705 3.332-1.419 0.132-2.837 0.33-4.223 0.66-0.066-0.297-0.132-0.627-0.198-0.957zM23.39 12.767c-0.297-0.528-0.627-1.056-0.957-1.584 1.023 0.132 1.979 0.297 2.87 0.495-0.297 0.924-0.627 1.847-1.023 2.705-0.264-0.528-0.561-1.056-0.891-1.617zM17.847 7.357c0.66 0.726 1.287 1.452 1.847 2.243-1.254-0.066-2.474-0.066-3.728 0 0.594-0.759 1.221-1.518 1.88-2.243zM12.239 12.8c-0.297 0.528-0.594 1.089-0.891 1.649-0.363-0.891-0.726-1.814-0.99-2.738 0.957-0.198 1.913-0.363 2.87-0.495-0.338 0.456-0.666 0.974-0.956 1.515l-0.034 0.068zM13.229 20.849c-0.99-0.099-1.946-0.264-2.903-0.462 0.297-0.957 0.627-1.88 1.023-2.804 0.297 0.561 0.594 1.089 0.891 1.649 0.33 0.561 0.66 1.089 0.99 1.616zM17.88 24.676c-0.66-0.726-1.32-1.485-1.913-2.276 0.594 0.033 1.221 0.033 1.847 0.033 0.66 0 1.287 0 1.913-0.033-0.594 0.792-1.188 1.55-1.847 2.276zM24.313 17.55c0.396 0.924 0.759 1.847 1.056 2.771-0.99 0.231-1.946 0.396-2.936 0.495 0.33-0.528 0.66-1.056 0.957-1.616 0.33-0.528 0.627-1.089 0.924-1.649zM22.235 18.54c-0.495 0.825-0.99 1.649-1.518 2.441-0.924 0.066-1.913 0.099-2.903 0.099s-1.946-0.033-2.87-0.099c-0.561-0.792-1.056-1.616-1.55-2.441s-0.924-1.682-1.353-2.54c0.429-0.858 0.858-1.715 1.353-2.54s0.99-1.649 1.518-2.441c1.913-0.132 3.827-0.132 5.773 0 0.528 0.792 1.056 1.617 1.518 2.441 0.495 0.825 0.924 1.682 1.353 2.54-0.396 0.858-0.858 1.715-1.32 2.54zM25.006 3.464c1.056 0.627 1.485 3.068 0.792 6.301-0.033 0.198-0.099 0.429-0.132 0.627-1.386-0.33-2.804-0.528-4.223-0.66-0.825-1.155-1.715-2.276-2.672-3.332 0.231-0.231 0.495-0.462 0.726-0.66 2.342-2.045 4.52-2.837 5.509-2.276z"></path>
<path fill="#39d8ff" style="fill: var(--color2, #39d8ff)" d="M17.814 13.196c1.55 0 2.837 1.254 2.837 2.837 0 1.55-1.254 2.837-2.837 2.837-1.55 0-2.837-1.254-2.837-2.837 0.033-1.584 1.287-2.837 2.837-2.837zM43.184 16.066h-2.936v4.289h-1.32v-10.722h3.959c2.078 0 3.563 0.99 3.563 3.035v0.363c0 1.452-0.759 2.375-1.913 2.771l2.54 4.553h-1.485l-2.408-4.289zM42.821 14.878c1.353 0 2.309-0.627 2.309-1.847v-0.33c0-1.254-0.957-1.88-2.309-1.88h-2.573v4.058h2.573zM49.419 17.287c0 1.221 0.759 2.177 2.078 2.177 1.089 0 1.748-0.561 1.847-1.386h1.254c-0.132 1.419-1.353 2.441-3.068 2.441-2.045 0-3.332-1.32-3.332-3.53v-0.495c0-2.177 1.254-3.53 3.299-3.53 1.979 0 3.134 1.287 3.134 3.365v0.825h-5.212v0.132zM49.419 16.033v0.066h3.926v-0.165c0-1.056-0.561-1.946-1.88-1.946-1.056-0.066-1.979 0.759-2.045 1.814v0.231zM61.988 15.934v4.454h-1.254v-0.759c-0.594 0.594-1.419 0.924-2.276 0.891-1.32 0-2.309-0.759-2.309-2.111 0-1.584 1.254-2.177 2.87-2.177 0.561 0 1.122 0.033 1.682 0.099v-0.561c0-1.056-0.462-1.748-1.518-1.748-0.858-0.033-1.584 0.594-1.617 1.452v0.132h-1.254c0-1.32 1.023-2.606 2.837-2.606 1.913-0.066 2.837 1.056 2.837 2.936zM57.402 18.342c0 0.726 0.528 1.122 1.419 1.122 0.759-0.033 1.452-0.363 1.946-0.924v-1.188c-0.528-0.066-1.089-0.099-1.617-0.099-1.089-0.033-1.748 0.33-1.748 1.089zM70.367 15.769h-1.155c-0.033-0.99-0.858-1.781-1.847-1.781h-0.066c-1.353 0-2.111 0.957-2.111 2.441v0.594c0 1.485 0.759 2.441 2.111 2.441 0.957 0.066 1.814-0.66 1.88-1.616v-0.033h1.188c-0.165 1.682-1.419 2.705-3.068 2.705-2.045 0-3.365-1.254-3.365-3.53v-0.495c0-2.276 1.32-3.53 3.365-3.53 1.715-0.033 2.969 1.056 3.068 2.804zM75.942 20.322c-0.462 0.165-0.924 0.231-1.419 0.198-1.254 0-2.078-0.726-2.078-2.276v-4.124h-1.32v-1.056h1.32v-2.54h1.254v2.54h2.144v1.056h-2.144l-0.033 3.893c0 1.023 0.462 1.353 1.221 1.353 0.33 0 0.693-0.066 0.99-0.198l0.066 1.155z"></path>
</symbol>
<symbol id="icon-graphql" viewBox="0 0 64 32">
<title>graphql</title>
<path fill="#e10098" style="fill: var(--color3, #e10098)" d="M25.273 12.049q-0.455 0-0.831 0.121-0.364 0.111-0.638 0.375-0.263 0.253-0.426 0.659-0.152 0.405-0.172 0.967-0.032 0.912 0 1.824 0.020 0.567 0.172 0.967 0.162 0.405 0.426 0.669 0.273 0.253 0.638 0.375 0.375 0.111 0.831 0.111 0.447 0 0.831-0.121 0.383-0.132 0.659-0.383 0.284-0.263 0.447-0.669t0.162-0.952v-0.517h-1.765q-0.223 0-0.223-0.228v-0.142q0-0.228 0.223-0.228h2.168q0.228 0 0.228 0.228v0.891q0 0.609-0.182 1.115-0.182 0.497-0.537 0.862-0.344 0.364-0.862 0.567-0.512 0.192-1.155 0.192-0.659 0-1.155-0.192-0.497-0.203-0.841-0.558-0.334-0.354-0.517-0.841-0.172-0.497-0.192-1.095-0.020-0.455-0.020-0.963 0-0.512 0.020-0.963 0.020-0.597 0.203-1.084 0.182-0.497 0.517-0.851 0.344-0.354 0.841-0.547 0.497-0.203 1.145-0.203 0.7 0 1.196 0.213t0.811 0.512q0.314 0.294 0.466 0.618t0.162 0.537q0.010 0.091-0.051 0.152-0.061 0.051-0.162 0.051h-0.223q-0.091 0-0.132-0.040-0.040-0.051-0.081-0.162-0.081-0.228-0.228-0.455-0.142-0.228-0.383-0.405-0.243-0.182-0.577-0.294t-0.791-0.111zM30.056 14.065q0.364-0.7 1.378-0.7h0.375q0.223 0 0.223 0.223v0.142q0 0.223-0.223 0.223h-0.436q-0.609 0-0.963 0.354t-0.354 0.963v3.14q0 0.101-0.071 0.162-0.061 0.061-0.162 0.061h-0.162q-0.223 0-0.223-0.223v-4.813q0-0.101 0.061-0.162 0.061-0.071 0.162-0.071h0.162q0.101 0 0.162 0.071 0.071 0.061 0.071 0.162v0.466zM36.314 18.637q-0.223 0-0.223-0.223v-0.476q-0.091 0.142-0.243 0.284-0.142 0.142-0.354 0.253t-0.512 0.182q-0.294 0.081-0.688 0.081-0.364 0-0.7-0.111-0.324-0.121-0.577-0.324-0.243-0.203-0.395-0.476-0.142-0.273-0.142-0.597 0-0.344 0.142-0.618 0.152-0.273 0.415-0.476 0.263-0.213 0.628-0.344 0.375-0.142 0.821-0.203l1.601-0.223v-0.354q0-0.547-0.334-0.851-0.324-0.304-1.043-0.304-0.567 0-0.882 0.223-0.304 0.213-0.383 0.466-0.040 0.121-0.101 0.172-0.051 0.040-0.142 0.040h-0.142q-0.091 0-0.162-0.061-0.061-0.071-0.061-0.162 0-0.142 0.101-0.354t0.324-0.415q0.228-0.203 0.588-0.344 0.354-0.152 0.862-0.152 0.597 0 0.983 0.162 0.395 0.162 0.618 0.426 0.223 0.253 0.304 0.567 0.091 0.314 0.091 0.618v3.374q0 0.223-0.223 0.223h-0.172zM34.399 18.15q0.344 0 0.649-0.111 0.314-0.121 0.547-0.354 0.228-0.228 0.364-0.588 0.132-0.354 0.132-0.831v-0.344l-1.307 0.182q-1.682 0.228-1.682 1.074 0 0.253 0.111 0.436 0.121 0.182 0.304 0.304t0.415 0.182q0.228 0.051 0.467 0.051zM40.632 18.738q-0.638 0-1.043-0.228t-0.659-0.567v2.401q0 0.223-0.223 0.223h-0.172q-0.223 0-0.223-0.223v-6.756q0-0.223 0.223-0.223h0.172q0.223 0 0.223 0.223v0.476q0.253-0.344 0.659-0.567 0.405-0.228 1.043-0.228 0.588 0 0.993 0.213 0.415 0.203 0.669 0.547 0.253 0.335 0.364 0.77 0.121 0.426 0.142 0.872 0.010 0.152 0.010 0.334t-0.010 0.334q-0.020 0.447-0.142 0.882-0.111 0.426-0.364 0.77-0.253 0.334-0.669 0.547-0.405 0.203-0.993 0.203zM38.93 15.637q-0.010 0.152-0.010 0.395t0.010 0.395q0.010 0.304 0.101 0.618 0.101 0.304 0.304 0.547t0.512 0.405q0.304 0.152 0.729 0.152 0.447 0 0.74-0.152 0.304-0.152 0.486-0.405 0.192-0.263 0.273-0.597 0.091-0.344 0.111-0.709 0.010-0.284 0-0.567-0.020-0.364-0.111-0.7-0.081-0.335-0.273-0.588-0.182-0.263-0.486-0.415-0.294-0.162-0.74-0.162-0.436 0-0.74 0.162t-0.512 0.426q-0.192 0.253-0.294 0.567-0.091 0.314-0.101 0.628zM44.808 14.065q0.273-0.354 0.659-0.577 0.383-0.223 1.043-0.223 0.517 0 0.902 0.172 0.383 0.172 0.638 0.476 0.263 0.304 0.395 0.72t0.132 0.902v2.878q0 0.223-0.223 0.223h-0.171q-0.223 0-0.223-0.223v-2.827q0-0.811-0.395-1.266-0.395-0.466-1.155-0.466-0.729 0-1.165 0.455t-0.436 1.278v2.827q0 0.223-0.223 0.223h-0.172q-0.223 0-0.223-0.223v-6.75q0-0.223 0.223-0.223h0.172q0.223 0 0.223 0.223v2.401zM52.71 11.441q0.588 0 1.074 0.172t0.831 0.527q0.354 0.344 0.547 0.872 0.203 0.517 0.223 1.226 0.020 0.455 0.020 0.851 0 0.395-0.020 0.851-0.051 1.449-0.74 2.128l0.649 0.912q0.010 0.020 0.020 0.040 0.010 0.020 0.010 0.071 0 0.081-0.061 0.142t-0.142 0.061h-0.223q-0.111 0-0.192-0.091-0.081-0.081-0.132-0.142l-0.447-0.618q-0.609 0.294-1.419 0.294-1.266 0-1.955-0.679-0.679-0.679-0.72-2.117-0.020-0.455-0.020-0.851 0-0.395 0.020-0.851 0.020-0.709 0.213-1.226 0.203-0.527 0.547-0.872 0.354-0.354 0.831-0.527 0.486-0.172 1.084-0.172zM52.71 12.050q-0.426 0-0.791 0.132-0.364 0.121-0.638 0.395-0.273 0.273-0.436 0.7-0.152 0.426-0.172 1.013-0.010 0.228-0.020 0.426 0 0.192 0 0.375 0 0.182 0 0.383 0.010 0.192 0.020 0.415 0.020 0.597 0.172 1.024 0.162 0.415 0.426 0.688 0.273 0.273 0.638 0.405 0.364 0.121 0.799 0.121 0.436 0 0.799-0.121 0.364-0.132 0.628-0.405 0.273-0.273 0.426-0.688 0.162-0.426 0.182-1.024 0.010-0.223 0.010-0.415 0-0.203 0-0.383 0-0.182 0-0.375 0-0.192-0.010-0.426-0.020-0.588-0.182-1.013-0.152-0.426-0.426-0.7-0.273-0.273-0.638-0.395-0.364-0.132-0.791-0.132zM57.656 18.027h3.495q0.228 0 0.228 0.228v0.152q0 0.223-0.228 0.223h-3.911q-0.223 0-0.223-0.223v-6.641q0-0.223 0.223-0.223h0.192q0.223 0 0.223 0.223v6.261zM4.123 20.879l-0.683-0.395 7.611-13.181 0.683 0.395z"></path>
<path fill="#e10098" style="fill: var(--color3, #e10098)" d="M3.285 19.431h15.221v0.789h-15.221z"></path>
<path fill="#e10098" style="fill: var(--color3, #e10098)" d="M11.2 24.27l-7.614-4.396 0.395-0.683 7.614 4.395zM17.814 12.813l-7.614-4.395 0.395-0.683 7.614 4.396z"></path>
<path fill="#e10098" style="fill: var(--color3, #e10098)" d="M3.982 12.81l-0.395-0.683 7.62-4.391 0.395 0.683z"></path>
<path fill="#e10098" style="fill: var(--color3, #e10098)" d="M17.673 20.879l-7.611-13.181 0.683-0.395 7.611 13.181zM3.888 11.604h0.788v8.792h-0.788zM17.119 11.604h0.789v8.792h-0.79z"></path>
<path fill="#e10098" style="fill: var(--color3, #e10098)" d="M11.065 23.936l-0.345-0.597 6.622-3.823 0.345 0.597z"></path>
<path fill="#e10098" style="fill: var(--color3, #e10098)" d="M18.953 20.653c-0.293 0.5-0.827 0.83-1.438 0.83-0.305 0-0.591-0.082-0.837-0.226l0.008 0.004c-0.5-0.293-0.83-0.827-0.83-1.438 0-0.305 0.082-0.591 0.226-0.837l-0.004 0.008c0.293-0.5 0.827-0.83 1.438-0.83 0.305 0 0.591 0.082 0.837 0.226l-0.008-0.004c0.799 0.455 1.070 1.479 0.609 2.267zM5.714 13.007c-0.293 0.5-0.827 0.83-1.438 0.83-0.305 0-0.591-0.082-0.837-0.226l0.008 0.004c-0.5-0.293-0.83-0.827-0.83-1.438 0-0.305 0.082-0.591 0.226-0.837l-0.004 0.008c0.293-0.5 0.827-0.83 1.438-0.83 0.305 0 0.591 0.082 0.837 0.226l-0.008-0.004c0.794 0.455 1.064 1.479 0.609 2.267zM2.844 20.653c-0.456-0.794-0.185-1.806 0.609-2.267 0.794-0.456 1.806-0.185 2.267 0.609 0.456 0.794 0.185 1.806-0.609 2.267-0.799 0.456-1.811 0.185-2.267-0.609zM16.084 13.007c-0.456-0.794-0.185-1.806 0.609-2.267 0.794-0.456 1.806-0.185 2.267 0.609 0.456 0.794 0.185 1.806-0.609 2.267-0.238 0.139-0.524 0.222-0.829 0.222-0.611 0-1.145-0.33-1.434-0.822l-0.004-0.008zM10.897 25.307c-0.917 0-1.658-0.741-1.658-1.658s0.743-1.658 1.658-1.658 1.658 0.741 1.658 1.658c-0.002 0.915-0.743 1.657-1.658 1.658h-0zM10.897 10.014c-0.917 0-1.658-0.741-1.658-1.658s0.743-1.658 1.658-1.658 1.658 0.741 1.658 1.658c0 0.001 0 0.002 0 0.003 0 0.914-0.741 1.655-1.655 1.655-0.001 0-0.002 0-0.003 0h0z"></path>
</symbol>
<symbol id="icon-nextjs" viewBox="0 0 53 32">
<title>nextjs</title>
<path d="M12.63 8.421h10.054v0.795h-9.132v5.985h8.588v0.795h-8.588v6.571h9.237v0.795h-10.159v-14.943zM23.585 8.421h1.068l4.734 6.571 4.838-6.571 6.581-8.347-10.812 15.609 5.572 7.681h-1.11l-5.069-6.99-5.090 6.99h-1.089l5.613-7.681-5.236-7.262zM35.964 9.216v-0.795h11.457v0.795h-5.278v14.147h-0.922v-14.147h-5.257z"></path>
<path d="M0.052 8.421h1.152l15.886 23.657-6.565-8.715-9.509-13.812-0.042 13.812h-0.922z"></path>
<path d="M47.328 22.328c0.191 0 0.33-0.145 0.33-0.333s-0.139-0.333-0.33-0.333c-0.188 0-0.33 0.145-0.33 0.333s0.141 0.333 0.33 0.333zM48.234 21.453c0 0.554 0.401 0.916 0.986 0.916 0.623 0 1-0.373 1-1.021v-2.281h-0.502v2.278c0 0.36-0.182 0.552-0.502 0.552-0.287 0-0.482-0.179-0.489-0.445h-0.493zM50.877 21.424c0.036 0.576 0.518 0.945 1.235 0.945 0.767 0 1.246-0.386 1.246-1.003 0-0.485-0.273-0.753-0.937-0.907l-0.356-0.087c-0.421-0.098-0.592-0.23-0.592-0.46 0-0.29 0.264-0.48 0.661-0.48 0.377 0 0.637 0.185 0.684 0.482h0.489c-0.029-0.543-0.509-0.925-1.166-0.925-0.706 0-1.177 0.382-1.177 0.956 0 0.474 0.267 0.755 0.852 0.891l0.417 0.101c0.428 0.101 0.616 0.248 0.616 0.494 0 0.286-0.296 0.494-0.699 0.494-0.433 0-0.733-0.194-0.776-0.5h-0.498z"></path>
</symbol>
</defs>
</svg>
