<svg aria-hidden="true" style="position: absolute; width: 0; height: 0; overflow: hidden;" version="1.1" xmlns="http://www.w3.org/2000/svg" xmlns:xlink="http://www.w3.org/1999/xlink">
<defs>
<symbol id="icon-apollo" viewBox="0 0 64 32">
<title>apollo</title>
<path d="M12.054 12.242h-1.776l-2.566 6.659h1.608l0.419-1.128h2.425l-0.439-1.248h-1.598l1.038-2.866 1.849 5.242h1.607zM39.051 18.901v-6.659h1.428v5.411h2.815v1.248h-4.243zM47.28 18.901v-6.659h1.428v5.411h2.816v1.248h-4.244zM31.144 13.44c1.182 0.002 2.14 0.959 2.141 2.141v0c-0.002 1.182-0.959 2.14-2.141 2.141h-0c-1.182-0.002-2.14-0.959-2.141-2.141v-0c0.002-1.182 0.959-2.14 2.141-2.141h0zM31.144 12.137c-1.902 0.001-3.444 1.542-3.444 3.444v0c0 1.902 1.542 3.444 3.444 3.445h0c1.902-0 3.444-1.542 3.445-3.445v-0c-0.001-1.902-1.543-3.444-3.445-3.444h-0zM58.086 13.44c1.182 0.002 2.14 0.959 2.141 2.141v0c-0.002 1.182-0.959 2.14-2.141 2.141h-0c-1.182-0.001-2.14-0.959-2.142-2.141v-0c0.002-1.182 0.96-2.14 2.142-2.141h0zM58.086 12.137c-1.902 0-3.444 1.542-3.445 3.444v0c0 1.902 1.542 3.444 3.445 3.445h0c1.902-0 3.444-1.542 3.445-3.445v-0c-0.001-1.902-1.543-3.444-3.445-3.444h-0zM21.879 12.247h-3.106v6.654h1.419v-2.292h1.687c1.184 0 2.143-1.001 2.143-2.184s-0.96-2.183-2.143-2.183zM21.879 15.311h-1.687v-1.762h1.687c0.463 0 0.839 0.416 0.839 0.88s-0.377 0.88-0.839 0.88zM17.55 20.927c-0 0-0 0-0.001 0-0.124 0-0.233 0.063-0.297 0.159l-0.001 0.001-0.492 0.538c-0.73 0.73-1.579 1.301-2.524 1.707-0.907 0.395-1.964 0.624-3.075 0.624-0.006 0-0.011 0-0.017-0h0.001c-1.073 0-2.112-0.21-3.091-0.624-0.981-0.42-1.819-0.994-2.524-1.701l-0-0c-0.707-0.705-1.281-1.543-1.683-2.473l-0.020-0.051c-0.395-0.912-0.624-1.974-0.624-3.090 0-0.005 0-0.011 0-0.016v0.001c0-0.004 0-0.010 0-0.015 0-1.111 0.229-2.168 0.644-3.127l-0.020 0.051c0.421-0.981 0.995-1.819 1.702-2.524l0-0c0.73-0.73 1.58-1.301 2.524-1.702 0.907-0.395 1.964-0.624 3.075-0.624 0.006 0 0.011 0 0.017 0h-0.001c1.073 0 2.112 0.21 3.091 0.624 0.727 0.311 1.355 0.695 1.918 1.155l-0.014-0.011c-0.032 0.093-0.053 0.191-0.053 0.29 0 0.495 0.401 0.896 0.896 0.896s0.896-0.401 0.896-0.896c0-0.495-0.401-0.896-0.896-0.896v0c-0 0-0.001 0-0.001 0-0.125 0-0.244 0.026-0.352 0.072l0.006-0.002c-1.496-1.227-3.41-1.963-5.495-1.963-4.792-0.001-8.669 3.882-8.669 8.673s3.884 8.674 8.674 8.674c2.68 0 5.075-1.216 6.666-3.125 0.066-0.066 0.107-0.158 0.107-0.259-0.001-0.202-0.165-0.366-0.367-0.367h-0z"></path>
</symbol>
<symbol id="icon-graphql" viewBox="0 0 64 32">
<title>graphql</title>
<path fill="#e10098" style="fill: var(--color1, #e10098)" d="M25.273 12.049q-0.455 0-0.831 0.121-0.364 0.111-0.638 0.375-0.263 0.253-0.426 0.659-0.152 0.405-0.172 0.967-0.032 0.912 0 1.824 0.020 0.567 0.172 0.967 0.162 0.405 0.426 0.669 0.273 0.253 0.638 0.375 0.375 0.111 0.831 0.111 0.447 0 0.831-0.121 0.383-0.132 0.659-0.383 0.284-0.263 0.447-0.669t0.162-0.952v-0.517h-1.765q-0.223 0-0.223-0.228v-0.142q0-0.228 0.223-0.228h2.168q0.228 0 0.228 0.228v0.891q0 0.609-0.182 1.115-0.182 0.497-0.537 0.862-0.344 0.364-0.862 0.567-0.512 0.192-1.155 0.192-0.659 0-1.155-0.192-0.497-0.203-0.841-0.558-0.334-0.354-0.517-0.841-0.172-0.497-0.192-1.095-0.020-0.455-0.020-0.963 0-0.512 0.020-0.963 0.020-0.597 0.203-1.084 0.182-0.497 0.517-0.851 0.344-0.354 0.841-0.547 0.497-0.203 1.145-0.203 0.7 0 1.196 0.213t0.811 0.512q0.314 0.294 0.466 0.618t0.162 0.537q0.010 0.091-0.051 0.152-0.061 0.051-0.162 0.051h-0.223q-0.091 0-0.132-0.040-0.040-0.051-0.081-0.162-0.081-0.228-0.228-0.455-0.142-0.228-0.383-0.405-0.243-0.182-0.577-0.294t-0.791-0.111zM30.056 14.065q0.364-0.7 1.378-0.7h0.375q0.223 0 0.223 0.223v0.142q0 0.223-0.223 0.223h-0.436q-0.609 0-0.963 0.354t-0.354 0.963v3.14q0 0.101-0.071 0.162-0.061 0.061-0.162 0.061h-0.162q-0.223 0-0.223-0.223v-4.813q0-0.101 0.061-0.162 0.061-0.071 0.162-0.071h0.162q0.101 0 0.162 0.071 0.071 0.061 0.071 0.162v0.466zM36.314 18.637q-0.223 0-0.223-0.223v-0.476q-0.091 0.142-0.243 0.284-0.142 0.142-0.354 0.253t-0.512 0.182q-0.294 0.081-0.688 0.081-0.364 0-0.7-0.111-0.324-0.121-0.577-0.324-0.243-0.203-0.395-0.476-0.142-0.273-0.142-0.597 0-0.344 0.142-0.618 0.152-0.273 0.415-0.476 0.263-0.213 0.628-0.344 0.375-0.142 0.821-0.203l1.601-0.223v-0.354q0-0.547-0.334-0.851-0.324-0.304-1.043-0.304-0.567 0-0.882 0.223-0.304 0.213-0.383 0.466-0.040 0.121-0.101 0.172-0.051 0.040-0.142 0.040h-0.142q-0.091 0-0.162-0.061-0.061-0.071-0.061-0.162 0-0.142 0.101-0.354t0.324-0.415q0.228-0.203 0.588-0.344 0.354-0.152 0.862-0.152 0.597 0 0.983 0.162 0.395 0.162 0.618 0.426 0.223 0.253 0.304 0.567 0.091 0.314 0.091 0.618v3.374q0 0.223-0.223 0.223h-0.172zM34.399 18.15q0.344 0 0.649-0.111 0.314-0.121 0.547-0.354 0.228-0.228 0.364-0.588 0.132-0.354 0.132-0.831v-0.344l-1.307 0.182q-1.682 0.228-1.682 1.074 0 0.253 0.111 0.436 0.121 0.182 0.304 0.304t0.415 0.182q0.228 0.051 0.467 0.051zM40.632 18.738q-0.638 0-1.043-0.228t-0.659-0.567v2.401q0 0.223-0.223 0.223h-0.172q-0.223 0-0.223-0.223v-6.756q0-0.223 0.223-0.223h0.172q0.223 0 0.223 0.223v0.476q0.253-0.344 0.659-0.567 0.405-0.228 1.043-0.228 0.588 0 0.993 0.213 0.415 0.203 0.669 0.547 0.253 0.335 0.364 0.77 0.121 0.426 0.142 0.872 0.010 0.152 0.010 0.334t-0.010 0.334q-0.020 0.447-0.142 0.882-0.111 0.426-0.364 0.77-0.253 0.334-0.669 0.547-0.405 0.203-0.993 0.203zM38.93 15.637q-0.010 0.152-0.010 0.395t0.010 0.395q0.010 0.304 0.101 0.618 0.101 0.304 0.304 0.547t0.512 0.405q0.304 0.152 0.729 0.152 0.447 0 0.74-0.152 0.304-0.152 0.486-0.405 0.192-0.263 0.273-0.597 0.091-0.344 0.111-0.709 0.010-0.284 0-0.567-0.020-0.364-0.111-0.7-0.081-0.335-0.273-0.588-0.182-0.263-0.486-0.415-0.294-0.162-0.74-0.162-0.436 0-0.74 0.162t-0.512 0.426q-0.192 0.253-0.294 0.567-0.091 0.314-0.101 0.628zM44.808 14.065q0.273-0.354 0.659-0.577 0.383-0.223 1.043-0.223 0.517 0 0.902 0.172 0.383 0.172 0.638 0.476 0.263 0.304 0.395 0.72t0.132 0.902v2.878q0 0.223-0.223 0.223h-0.171q-0.223 0-0.223-0.223v-2.827q0-0.811-0.395-1.266-0.395-0.466-1.155-0.466-0.729 0-1.165 0.455t-0.436 1.278v2.827q0 0.223-0.223 0.223h-0.172q-0.223 0-0.223-0.223v-6.75q0-0.223 0.223-0.223h0.172q0.223 0 0.223 0.223v2.401zM52.71 11.441q0.588 0 1.074 0.172t0.831 0.527q0.354 0.344 0.547 0.872 0.203 0.517 0.223 1.226 0.020 0.455 0.020 0.851 0 0.395-0.020 0.851-0.051 1.449-0.74 2.128l0.649 0.912q0.010 0.020 0.020 0.040 0.010 0.020 0.010 0.071 0 0.081-0.061 0.142t-0.142 0.061h-0.223q-0.111 0-0.192-0.091-0.081-0.081-0.132-0.142l-0.447-0.618q-0.609 0.294-1.419 0.294-1.266 0-1.955-0.679-0.679-0.679-0.72-2.117-0.020-0.455-0.020-0.851 0-0.395 0.020-0.851 0.020-0.709 0.213-1.226 0.203-0.527 0.547-0.872 0.354-0.354 0.831-0.527 0.486-0.172 1.084-0.172zM52.71 12.050q-0.426 0-0.791 0.132-0.364 0.121-0.638 0.395-0.273 0.273-0.436 0.7-0.152 0.426-0.172 1.013-0.010 0.228-0.020 0.426 0 0.192 0 0.375 0 0.182 0 0.383 0.010 0.192 0.020 0.415 0.020 0.597 0.172 1.024 0.162 0.415 0.426 0.688 0.273 0.273 0.638 0.405 0.364 0.121 0.799 0.121 0.436 0 0.799-0.121 0.364-0.132 0.628-0.405 0.273-0.273 0.426-0.688 0.162-0.426 0.182-1.024 0.010-0.223 0.010-0.415 0-0.203 0-0.383 0-0.182 0-0.375 0-0.192-0.010-0.426-0.020-0.588-0.182-1.013-0.152-0.426-0.426-0.7-0.273-0.273-0.638-0.395-0.364-0.132-0.791-0.132zM57.656 18.027h3.495q0.228 0 0.228 0.228v0.152q0 0.223-0.228 0.223h-3.911q-0.223 0-0.223-0.223v-6.641q0-0.223 0.223-0.223h0.192q0.223 0 0.223 0.223v6.261zM4.123 20.879l-0.683-0.395 7.611-13.181 0.683 0.395z"></path>
<path fill="#e10098" style="fill: var(--color1, #e10098)" d="M3.285 19.431h15.221v0.789h-15.221z"></path>
<path fill="#e10098" style="fill: var(--color1, #e10098)" d="M11.2 24.27l-7.614-4.396 0.395-0.683 7.614 4.395zM17.814 12.813l-7.614-4.395 0.395-0.683 7.614 4.396z"></path>
<path fill="#e10098" style="fill: var(--color1, #e10098)" d="M3.982 12.81l-0.395-0.683 7.62-4.391 0.395 0.683z"></path>
<path fill="#e10098" style="fill: var(--color1, #e10098)" d="M17.673 20.879l-7.611-13.181 0.683-0.395 7.611 13.181zM3.888 11.604h0.788v8.792h-0.788zM17.119 11.604h0.789v8.792h-0.79z"></path>
<path fill="#e10098" style="fill: var(--color1, #e10098)" d="M11.065 23.936l-0.345-0.597 6.622-3.823 0.345 0.597z"></path>
<path fill="#e10098" style="fill: var(--color1, #e10098)" d="M18.953 20.653c-0.293 0.5-0.827 0.83-1.438 0.83-0.305 0-0.591-0.082-0.837-0.226l0.008 0.004c-0.5-0.293-0.83-0.827-0.83-1.438 0-0.305 0.082-0.591 0.226-0.837l-0.004 0.008c0.293-0.5 0.827-0.83 1.438-0.83 0.305 0 0.591 0.082 0.837 0.226l-0.008-0.004c0.799 0.455 1.070 1.479 0.609 2.267zM5.714 13.007c-0.293 0.5-0.827 0.83-1.438 0.83-0.305 0-0.591-0.082-0.837-0.226l0.008 0.004c-0.5-0.293-0.83-0.827-0.83-1.438 0-0.305 0.082-0.591 0.226-0.837l-0.004 0.008c0.293-0.5 0.827-0.83 1.438-0.83 0.305 0 0.591 0.082 0.837 0.226l-0.008-0.004c0.794 0.455 1.064 1.479 0.609 2.267zM2.844 20.653c-0.456-0.794-0.185-1.806 0.609-2.267 0.794-0.456 1.806-0.185 2.267 0.609 0.456 0.794 0.185 1.806-0.609 2.267-0.799 0.456-1.811 0.185-2.267-0.609zM16.084 13.007c-0.456-0.794-0.185-1.806 0.609-2.267 0.794-0.456 1.806-0.185 2.267 0.609 0.456 0.794 0.185 1.806-0.609 2.267-0.238 0.139-0.524 0.222-0.829 0.222-0.611 0-1.145-0.33-1.434-0.822l-0.004-0.008zM10.897 25.307c-0.917 0-1.658-0.741-1.658-1.658s0.743-1.658 1.658-1.658 1.658 0.741 1.658 1.658c-0.002 0.915-0.743 1.657-1.658 1.658h-0zM10.897 10.014c-0.917 0-1.658-0.741-1.658-1.658s0.743-1.658 1.658-1.658 1.658 0.741 1.658 1.658c0 0.001 0 0.002 0 0.003 0 0.914-0.741 1.655-1.655 1.655-0.001 0-0.002 0-0.003 0h0z"></path>
</symbol>
<symbol id="icon-nextjs" viewBox="0 0 53 32">
<title>nextjs</title>
<path d="M12.63 8.421h10.054v0.795h-9.132v5.985h8.588v0.795h-8.588v6.571h9.237v0.795h-10.159v-14.943zM23.585 8.421h1.068l4.734 6.571 4.838-6.571 6.581-8.347-10.812 15.609 5.572 7.681h-1.11l-5.069-6.99-5.090 6.99h-1.089l5.613-7.681-5.236-7.262zM35.964 9.216v-0.795h11.457v0.795h-5.278v14.147h-0.922v-14.147h-5.257z"></path>
<path d="M0.052 8.421h1.152l15.886 23.657-6.565-8.715-9.509-13.812-0.042 13.812h-0.922z"></path>
<path d="M47.328 22.328c0.191 0 0.33-0.145 0.33-0.333s-0.139-0.333-0.33-0.333c-0.188 0-0.33 0.145-0.33 0.333s0.141 0.333 0.33 0.333zM48.234 21.453c0 0.554 0.401 0.916 0.986 0.916 0.623 0 1-0.373 1-1.021v-2.281h-0.502v2.278c0 0.36-0.182 0.552-0.502 0.552-0.287 0-0.482-0.179-0.489-0.445h-0.493zM50.877 21.424c0.036 0.576 0.518 0.945 1.235 0.945 0.767 0 1.246-0.386 1.246-1.003 0-0.485-0.273-0.753-0.937-0.907l-0.356-0.087c-0.421-0.098-0.592-0.23-0.592-0.46 0-0.29 0.264-0.48 0.661-0.48 0.377 0 0.637 0.185 0.684 0.482h0.489c-0.029-0.543-0.509-0.925-1.166-0.925-0.706 0-1.177 0.382-1.177 0.956 0 0.474 0.267 0.755 0.852 0.891l0.417 0.101c0.428 0.101 0.616 0.248 0.616 0.494 0 0.286-0.296 0.494-0.699 0.494-0.433 0-0.733-0.194-0.776-0.5h-0.498z"></path>
</symbol>
<symbol id="icon-reactjs" viewBox="0 0 64 32">
<title>reactjs</title>
<path fill="#00d8ff" style="fill: var(--color2, #00d8ff)" d="M15.742 15.983c0 1.024-0.83 1.854-1.854 1.854s-1.854-0.83-1.854-1.854c0-1.024 0.83-1.854 1.854-1.854s1.854 0.83 1.854 1.854z"></path>
<path fill="none" stroke="#00d8ff" style="stroke: var(--color2, #00d8ff)" stroke-linejoin="miter" stroke-linecap="butt" stroke-miterlimit="4" stroke-width="12.8" d="M13.888 12.214c2.489 0 4.801 0.357 6.544 0.957 2.1 0.723 3.392 1.819 3.392 2.812 0 1.034-1.369 2.199-3.624 2.946-1.705 0.565-3.949 0.86-6.312 0.86-2.422 0-4.716-0.277-6.44-0.866-2.182-0.746-3.496-1.925-3.496-2.94 0-0.984 1.233-2.072 3.304-2.794 1.75-0.61 4.119-0.975 6.632-0.975z"></path>
<path fill="none" stroke="#00d8ff" style="stroke: var(--color2, #00d8ff)" stroke-linejoin="miter" stroke-linecap="butt" stroke-miterlimit="4" stroke-width="12.8" d="M10.607 14.11c1.243-2.156 2.708-3.98 4.098-5.191 1.676-1.458 3.27-2.029 4.13-1.534 0.896 0.517 1.221 2.284 0.741 4.611-0.362 1.759-1.228 3.851-2.408 5.897-1.21 2.098-2.596 3.947-3.967 5.146-1.736 1.517-3.414 2.067-4.293 1.56-0.853-0.491-1.179-2.103-0.77-4.258 0.346-1.82 1.213-4.055 2.468-6.232z"></path>
<path fill="none" stroke="#00d8ff" style="stroke: var(--color2, #00d8ff)" stroke-linejoin="miter" stroke-linecap="butt" stroke-miterlimit="4" stroke-width="12.8" d="M10.61 17.899c-1.247-2.153-2.096-4.334-2.45-6.143-0.427-2.18-0.125-3.847 0.734-4.344 0.895-0.518 2.588 0.083 4.365 1.66 1.343 1.193 2.723 2.987 3.906 5.031 1.214 2.096 2.123 4.22 2.477 6.007 0.448 2.262 0.085 3.99-0.793 4.498-0.852 0.493-2.411-0.029-4.073-1.459-1.405-1.209-2.907-3.076-4.166-5.251z"></path>
<path fill="#00d8ff" style="fill: var(--color2, #00d8ff)" d="M34.464 20.719l-2.272-3.433c1.148-0.101 2.183-0.933 2.183-2.453 0-1.547-1.098-2.537-2.637-2.537h-3.381v8.416h1.047v-3.344h1.678l2.145 3.344zM31.612 16.454h-2.208v-3.218h2.208c0.997 0 1.678 0.656 1.678 1.603s-0.682 1.616-1.678 1.616zM38.363 20.87c0.997 0 1.817-0.328 2.423-0.933l-0.454-0.619c-0.48 0.492-1.186 0.77-1.88 0.77-1.312 0-2.12-0.959-2.196-2.107h4.933v-0.24c0-1.829-1.085-3.268-2.928-3.268-1.741 0-3.003 1.426-3.003 3.193 0 1.906 1.3 3.2 3.104 3.2zM40.257 17.286h-4c0.051-0.933 0.693-2.032 1.994-2.032 1.388 0 1.994 1.123 2.006 2.032zM47.475 20.718v-4.189c0-1.476-1.072-2.057-2.359-2.057-0.997 0-1.779 0.328-2.435 1.010l0.442 0.656c0.542-0.58 1.136-0.845 1.868-0.845 0.883 0 1.54 0.467 1.54 1.287v1.098c-0.492-0.568-1.186-0.833-2.019-0.833-1.035 0-2.133 0.644-2.133 2.006 0 1.325 1.098 2.019 2.133 2.019 0.82 0 1.515-0.29 2.019-0.845v0.693zM44.851 20.188c-0.883 0-1.502-0.555-1.502-1.325 0-0.782 0.619-1.338 1.502-1.338 0.669 0 1.312 0.252 1.678 0.757v1.148c-0.366 0.505-1.010 0.757-1.678 0.757zM52.051 20.87c1.11 0 1.766-0.454 2.234-1.060l-0.631-0.58c-0.404 0.542-0.921 0.795-1.547 0.795-1.3 0-2.107-1.010-2.107-2.359s0.807-2.347 2.107-2.347c0.631 0 1.148 0.24 1.547 0.795l0.631-0.58c-0.467-0.606-1.123-1.060-2.234-1.060-1.817 0-3.041 1.388-3.041 3.193 0 1.817 1.224 3.2 3.041 3.2zM57.149 20.87c0.555 0 0.896-0.164 1.136-0.391l-0.277-0.707c-0.126 0.139-0.373 0.252-0.644 0.252-0.416 0-0.619-0.328-0.619-0.782v-3.786h1.237v-0.833h-1.237v-1.666h-0.947v1.666h-1.010v0.833h1.010v3.988c0 0.909 0.454 1.426 1.35 1.426z"></path>
</symbol>
</defs>
</svg>
