<svg height="512" viewBox="0 0 64 64" width="512" xmlns="http://www.w3.org/2000/svg"><path d="m43 28c.05-.66.09-1.33.09-2a27.763 27.763 0 0 0 -.44-5.03 25.552 25.552 0 0 0 -2.5-7.51 22.381 22.381 0 0 0 -11.15-10.46 32.934 32.934 0 0 1 24.98 13.11 27.4 27.4 0 0 1 3.75 6.91 24.754 24.754 0 0 1 1.27 4.98z" fill="#d9176c"/><circle cx="29" cy="6" fill="#9b1e5a" r="3"/><path d="m58 32a29 29 0 0 1 -29 29 28.275 28.275 0 0 1 -26-17 23.765 23.765 0 0 0 17 7 25.076 25.076 0 0 0 4.75-.46 18.565 18.565 0 0 0 1.99-.46 23.934 23.934 0 0 0 5.26-2.08l-3-6h9.98a25.326 25.326 0 0 0 5.02-10z" fill="#f9bb4b"/><path d="m49 45a5.006 5.006 0 0 1 -5-5h2a3 3 0 0 0 6 0h2a5.006 5.006 0 0 1 -5 5z" fill="#394d5c"/><path d="m37 54.11a15.652 15.652 0 0 1 -4.9.89c-5.42 0-7.14-3.93-7.35-4.46a18.565 18.565 0 0 0 1.99-.46c.46.97 2.66 4.46 9.63 2.13z" fill="#394d5c"/><path d="m57.73 23.02a3.951 3.951 0 0 1 -2.43.84 3.985 3.985 0 0 1 -1.32-7.75 27.4 27.4 0 0 1 3.75 6.91z" fill="#eb8cb3"/><path d="m45.84 17.06a4 4 0 0 1 -3.19 3.91 25.552 25.552 0 0 0 -2.5-7.51 3.824 3.824 0 0 1 1.69-.4 4.005 4.005 0 0 1 4 4z" fill="#eb8cb3"/><g fill="#7fcac9"><path d="m20 42h-5a1 1 0 0 1 -.707-1.707l3.293-3.293h-2.586a1 1 0 0 1 0-2h5a1 1 0 0 1 .707 1.707l-3.293 3.293h2.586a1 1 0 0 1 0 2z"/><path d="m33 32h-6a1 1 0 0 1 -.707-1.707l4.293-4.293h-3.586a1 1 0 0 1 0-2h6a1 1 0 0 1 .707 1.707l-4.293 4.293h3.586a1 1 0 0 1 0 2z"/><path d="m22 22h-8a1 1 0 0 1 -.707-1.707l6.293-6.293h-5.586a1 1 0 0 1 0-2h8a1 1 0 0 1 .707 1.707l-6.293 6.293h5.586a1 1 0 0 1 0 2z"/></g><path d="m41 28h20v4h-20z" fill="#6f1d48"/></svg>