<svg height="512pt" viewBox="0 0 512.00722 512" width="512pt" xmlns="http://www.w3.org/2000/svg"><path d="m470.867188 256.003906c0-21.105468 38.238281-46.949218 33.035156-66.414062-5.382813-20.140625-51.574219-23.386719-61.777344-41.019532-10.347656-17.886718 9.828125-59.484374-4.6875-74-14.519531-14.515624-56.117188 5.65625-74.003906-4.691406-17.632813-10.203125-20.878906-56.394531-41.015625-61.777344-19.464844-5.203124-45.308594 33.039063-66.414063 33.039063-21.105468 0-46.949218-38.242187-66.414062-33.039063-20.140625 5.382813-23.386719 51.578126-41.019532 61.777344-17.886718 10.351563-59.484374-9.824218-74 4.691406-14.515624 14.515626 5.65625 56.113282-4.691406 74.003907-10.203125 17.632812-56.394531 20.875-61.777344 41.015625-5.203124 19.464844 33.035157 45.308594 33.035157 66.414062 0 21.105469-38.238281 46.949219-33.035157 66.414063 5.382813 20.140625 51.574219 23.382812 61.777344 41.019531 10.351563 17.886719-9.824218 59.484375 4.691406 74 14.515626 14.515625 56.113282-5.660156 74 4.691406 17.636719 10.203125 20.878907 56.394532 41.019532 61.777344 19.464844 5.203125 45.308594-33.039062 66.414062-33.039062 21.105469 0 46.949219 38.242187 66.414063 33.039062 20.136719-5.386719 23.382812-51.578125 41.015625-61.777344 17.890625-10.351562 59.488281 9.824219 74.003906-4.691406s-5.660156-56.117188 4.691406-74.003906c10.199219-17.632813 56.394532-20.875 61.773438-41.015625 5.203125-19.464844-33.035156-45.308594-33.035156-66.414063zm0 0" fill="#ffee8c"/><path d="m421.878906 256.003906c0 83.78125-62.117187 153.054688-142.816406 164.28125-7.535156 1.050782-15.230469 1.589844-23.054688 1.589844-91.609374 0-165.882812-74.261719-165.882812-165.871094s74.273438-165.875 165.882812-165.875c7.824219 0 15.519532.539063 23.054688 1.59375 80.699219 11.222656 142.816406 80.496094 142.816406 164.28125zm0 0" fill="#f28f44"/><path d="m421.878906 256.003906c0 83.78125-62.117187 153.054688-142.816406 164.28125-80.703125-11.226562-142.820312-80.5-142.820312-164.28125 0-83.785156 62.117187-153.058594 142.820312-164.28125 80.699219 11.222656 142.816406 80.496094 142.816406 164.28125zm0 0" fill="#ffd073"/><path d="m256.003906 429.480469c-95.65625 0-173.480468-77.820313-173.480468-173.476563s77.824218-173.476562 173.480468-173.476562c48.648438 0 95.363282 20.621094 128.175782 56.574218 2.832031 3.101563 2.609374 7.910157-.492188 10.742188s-7.910156 2.609375-10.742188-.492188c-29.9375-32.804687-72.558593-51.621093-116.941406-51.621093-87.273437 0-158.269531 71-158.269531 158.273437 0 87.269532 70.996094 158.269532 158.269531 158.269532 87.269532 0 158.269532-71 158.269532-158.269532 0-29.417968-8.125-58.128906-23.5-83.027344-2.207032-3.574218-1.097657-8.261718 2.476562-10.464843 3.574219-2.207031 8.257812-1.097657 10.464844 2.472656 16.855468 27.300781 25.765625 58.777344 25.765625 91.019531 0 95.65625-77.820313 173.476563-173.476563 173.476563zm0 0"/><path d="m318.605469 512.003906c-11.945313 0-23.792969-9.179687-35.300781-18.097656-9.335938-7.234375-19.917969-15.433594-27.300782-15.433594-7.382812 0-17.964844 8.199219-27.300781 15.433594-13.363281 10.351562-27.183594 21.058594-41.078125 17.34375-14.441406-3.859375-21.1875-20.433594-27.710938-36.457031-4.320312-10.617188-9.21875-22.652344-15.152343-26.085938-6.121094-3.539062-19.164063-1.765625-30.667969-.203125-4.058594.554688-8.257812 1.125-12.320312 1.511719-4.179688.398437-7.890626-2.671875-8.289063-6.851563-.398437-4.179687 2.667969-7.890624 6.847656-8.289062 3.761719-.355469 7.800781-.90625 11.710938-1.4375 14.605469-1.984375 29.707031-4.039062 40.335937 2.109375 10.441406 6.039063 16.125 20.007813 21.621094 33.511719 4.882812 12 10.417969 25.59375 17.550781 27.5 6.617188 1.765625 17.890625-6.964844 27.835938-14.671875 11.8125-9.15625 24.03125-18.621094 36.617187-18.621094 12.585938 0 24.800782 9.46875 36.613282 18.621094 9.949218 7.707031 21.222656 16.441406 27.835937 14.671875 7.136719-1.90625 12.667969-15.503906 17.550781-27.5 5.5-13.503906 11.183594-27.472656 21.621094-33.511719 10.628906-6.148437 25.730469-4.09375 40.335938-2.109375 12.675781 1.722656 27.042968 3.675781 32.097656-1.375 5.054687-5.054688 3.101562-19.421875 1.378906-32.097656-1.988281-14.605469-4.042969-29.707032 2.109375-40.335938 6.039063-10.441406 20.003906-16.125 33.511719-21.621094 11.996094-4.882812 25.59375-10.417968 27.5-17.550781 1.765625-6.617187-6.96875-17.890625-14.675782-27.835937-9.152343-11.8125-18.621093-24.03125-18.621093-36.617188 0-12.582031 9.46875-24.800781 18.621093-36.613281 7.707032-9.949219 16.441407-21.222656 14.675782-27.835937-1.90625-7.132813-15.503906-12.667969-27.5-17.550782-13.507813-5.496094-27.472656-11.183594-33.515625-21.621094-6.148438-10.628906-4.09375-25.730468-2.109375-40.335937 1.726562-12.675781 3.679687-27.042969-1.375-32.097656-5.054688-5.054688-19.421875-3.101563-32.097656-1.378907-14.605469 1.988282-29.707032 4.042969-40.335938-2.105468-10.441406-6.042969-16.125-20.007813-21.621094-33.515625-4.882812-11.996094-10.417968-25.59375-17.550781-27.5-6.613281-1.761719-17.890625 6.96875-27.835937 14.675781-11.8125 9.152344-24.03125 18.617188-36.617188 18.617188s-24.800781-9.464844-36.613281-18.617188c-9.949219-7.707031-21.222657-16.441406-27.835938-14.675781-7.136719 1.90625-12.667969 15.503906-17.550781 27.5-5.5 13.507812-11.183594 27.472656-21.625 33.511719-10.625 6.148437-25.726562 4.097656-40.335938 2.109374-12.675781-1.722656-27.042968-3.675781-32.09375 1.378907-5.054687 5.054687-3.101562 19.421875-1.378906 32.097656 1.988282 14.605469 4.039063 29.707031-2.109375 40.335937-6.039062 10.4375-20.007812 16.121094-33.511719 21.621094-11.996093 4.882813-25.59375 10.414063-27.5 17.550782-1.769531 6.613281 6.96875 17.886718 14.675782 27.832031 9.152344 11.816406 18.617187 24.03125 18.617187 36.617187 0 12.585938-9.464843 24.804688-18.617187 36.617188-7.707032 9.945312-16.445313 21.21875-14.675782 27.835937 1.90625 7.136719 15.503907 12.667969 27.5 17.550781 13.503907 5.496094 27.472657 11.183594 33.511719 21.621094 6.148438 10.628906 4.09375 25.730469 2.109375 40.335938-1.722656 12.675781-3.675781 27.042968 1.378906 32.097656 2.96875 2.96875 2.96875 7.785156 0 10.753906-2.972656 2.96875-7.785156 2.96875-10.753906 0-10.386718-10.386718-8-27.933594-5.691406-44.902344 1.5625-11.503906 3.335938-24.546874-.207031-30.671874-3.429688-5.929688-15.464844-10.828126-26.082031-15.148438-16.027344-6.523438-32.597657-13.269531-36.457032-27.710938-3.714844-13.898437 6.992188-27.714843 17.34375-41.078124 7.234375-9.335938 15.433594-19.917969 15.433594-27.300782 0-7.382812-8.199219-17.964844-15.433594-27.300781-10.347656-13.363281-21.054687-27.179687-17.339844-41.078125 3.859376-14.441406 20.433594-21.1875 36.457032-27.707031 10.617187-4.324219 22.648437-9.21875 26.085937-15.152344 3.539063-6.121094 1.765625-19.164063.203125-30.671875-2.308594-16.96875-4.695312-34.511719 5.691406-44.898438 10.386719-10.386718 27.929688-8 44.898438-5.691406 11.507812 1.5625 24.550781 3.335938 30.671875-.207031 5.933594-3.429687 10.832031-15.464844 15.152344-26.082031 6.523437-16.027344 13.265625-32.597656 27.710937-36.457032 13.898438-3.714843 27.714844 6.988282 41.074219 17.34375 9.335937 7.234376 19.917969 15.433594 27.300781 15.433594 7.386719 0 17.96875-8.199218 27.304688-15.433594 13.359375-10.351562 27.171875-21.0625 41.074218-17.34375 14.441407 3.859376 21.1875 20.433594 27.710938 36.457032 4.320312 10.617187 9.21875 22.652344 15.152344 26.085937 6.121094 3.539063 19.164062 1.765625 30.671875.203125 16.96875-2.308594 34.511719-4.695312 44.898437 5.691406 10.386719 10.386719 8 27.929688 5.691406 44.898438-1.5625 11.507812-3.335937 24.550781.203126 30.671875 3.433593 5.933594 15.46875 10.832031 26.085937 15.152344 16.023437 6.523437 32.597656 13.265625 36.457031 27.710937 3.714844 13.898438-6.992187 27.714844-17.34375 41.074219-7.234375 9.335937-15.433594 19.917969-15.433594 27.300781 0 7.382813 8.199219 17.964844 15.433594 27.300782 10.351563 13.363281 21.058594 27.179687 17.34375 41.078124-3.859375 14.441407-20.433594 21.1875-36.457031 27.710938-10.617187 4.320312-22.652344 9.214844-26.085937 15.148438-3.539063 6.125-1.765626 19.167968-.203126 30.671874 2.308594 16.96875 4.695313 34.515626-5.691406 44.898438-10.386718 10.386719-27.933594 8-44.898437 5.695312-11.507813-1.566406-24.550781-3.339843-30.671875.203126-5.933594 3.433593-10.832032 15.464843-15.152344 26.082031-6.523438 16.023437-13.265625 32.597656-27.710938 36.457031-1.929687.515625-3.855468.753906-5.777343.753906zm0 0"/><path d="m158.855469 230.277344c-1.945313 0-3.890625-.742188-5.375-2.226563-2.96875-2.96875-2.96875-7.785156 0-10.753906 17.007812-17.007813 44.683593-17.007813 61.695312 0 2.96875 2.96875 2.96875 7.785156 0 10.753906-2.972656 2.96875-7.785156 2.96875-10.753906 0-11.082031-11.082031-29.105469-11.078125-40.1875 0-1.484375 1.484375-3.433594 2.226563-5.378906 2.226563zm0 0"/><path d="m353.148438 230.277344c-1.945313 0-3.890626-.742188-5.375-2.226563-11.078126-11.078125-29.109376-11.078125-40.1875 0-2.96875 2.96875-7.785157 2.96875-10.753907 0s-2.96875-7.78125 0-10.753906c17.007813-17.007813 44.6875-17.007813 61.695313 0 2.96875 2.972656 2.96875 7.785156 0 10.753906-1.484375 1.484375-3.429688 2.226563-5.378906 2.226563zm0 0"/><path d="m256.003906 308.960938c-16.511718 0-32.035156-6.429688-43.707031-18.105469-2.96875-2.96875-2.96875-7.78125 0-10.75s7.785156-2.96875 10.75 0c8.804687 8.800781 20.507813 13.648437 32.957031 13.648437 12.449219 0 24.152344-4.847656 32.953125-13.648437 2.96875-2.96875 7.785157-2.96875 10.753907 0s2.96875 7.78125 0 10.75c-11.675782 11.675781-27.195313 18.105469-43.707032 18.105469zm0 0"/></svg>